<svg width="184" height="133" viewBox="0 0 184 133" fill="none" xmlns="http://www.w3.org/2000/svg">
<g filter="url(#filter0_d_9542_706)">
<path d="M177.871 26.9713C177.871 26.9713 176.159 14.7145 170.895 9.3202C164.216 2.24934 156.73 2.20769 153.3 1.80676C128.723 -6.08893e-07 91.8521 0 91.8521 0H91.7697C91.7697 0 54.9045 -6.08893e-07 30.3331 1.80676C26.8974 2.20248 19.4223 2.24414 12.7375 9.3202C7.47413 14.7145 5.75627 26.9713 5.75627 26.9713C5.75627 26.9713 4 41.3525 4 55.7337V69.2142C4 83.6058 5.75627 97.9818 5.75627 97.9818C5.75627 97.9818 7.46864 110.233 12.732 115.617C19.4168 122.688 28.1872 122.475 32.0949 123.214C46.1451 124.578 91.8137 125 91.8137 125C91.8137 125 128.717 124.938 153.3 123.152C156.73 122.735 164.216 122.693 170.895 115.617C176.153 110.233 177.871 97.9818 177.871 97.9818C177.871 97.9818 179.627 83.6006 179.627 69.2142V55.7337C179.627 41.3525 177.871 26.9713 177.871 26.9713ZM69.8822 93.7487V31.2461L124.782 62.4974L69.8822 93.7487Z" fill="white"/>
</g>
<defs>
<filter id="filter0_d_9542_706" x="0" y="0" width="183.625" height="133" filterUnits="userSpaceOnUse" color-interpolation-filters="sRGB">
<feFlood flood-opacity="0" result="BackgroundImageFix"/>
<feColorMatrix in="SourceAlpha" type="matrix" values="0 0 0 0 0 0 0 0 0 0 0 0 0 0 0 0 0 0 127 0" result="hardAlpha"/>
<feOffset dy="4"/>
<feGaussianBlur stdDeviation="2"/>
<feComposite in2="hardAlpha" operator="out"/>
<feColorMatrix type="matrix" values="0 0 0 0 0 0 0 0 0 0 0 0 0 0 0 0 0 0 0.25 0"/>
<feBlend mode="normal" in2="BackgroundImageFix" result="effect1_dropShadow_9542_706"/>
<feBlend mode="normal" in="SourceGraphic" in2="effect1_dropShadow_9542_706" result="shape"/>
</filter>
</defs>
</svg>
